<svg width="40" height="40" viewBox="0 0 40 40" fill="none" xmlns="http://www.w3.org/2000/svg">
<defs>
<linearGradient id="paint0_linear_3421_250" x1="5.89338" y1="6.13311" x2="33.4636" y2="33.7034" gradientUnits="userSpaceOnUse">
<stop stop-color="#3F6ABC"/>
<stop offset="1" stop-color="#2D368C"/>
</linearGradient>
</defs>
<path d="M39.1738 19.9184C39.1738 9.15178 30.4451 0.422447 19.6784 0.422447C8.91173 0.422447 0.183594 9.15178 0.183594 19.9184C0.183594 29.6491 7.31225 37.7144 16.6326 39.1758V25.5544H11.682V19.9184H16.6326V15.6224C16.6326 10.7371 19.543 8.03845 23.9962 8.03845C26.129 8.03845 28.3596 8.41978 28.3596 8.41978V13.2171H25.9014C23.4795 13.2171 22.7243 14.7198 22.7243 16.2611V19.9184H28.1315L27.2675 25.5544H22.7243V39.1758C32.0446 37.7144 39.1738 29.6491 39.1738 19.9184" fill="url(#paint0_linear_3421_250)"/>
<path d="M27.2691 25.5554L28.1331 19.9194H22.7259V16.2621C22.7259 14.7207 23.4811 13.2181 25.9029 13.2181H28.3612V8.42073C28.3612 8.42073 26.1305 8.0394 23.9977 8.0394C19.5445 8.0394 16.6341 10.7381 16.6341 15.6234V19.9194H11.6836V25.5554H16.6341V39.1767C17.6263 39.3327 18.644 39.4141 19.68 39.4141C20.7164 39.4141 21.7336 39.3327 22.7259 39.1767V25.5554H27.2691" fill="white"/>
</svg>
