<svg width="23" height="23" viewBox="0 0 23 23" fill="none" xmlns="http://www.w3.org/2000/svg">
<path d="M17.4808 4.08429C16.7406 4.08429 16.1406 4.6843 16.1406 5.4243C16.1406 6.1643 16.7406 6.76562 17.4808 6.76562C18.2209 6.76562 18.8204 6.1643 18.8204 5.4243C18.8204 4.6843 18.2209 4.08429 17.4808 4.08429Z" fill="white"/>
<path d="M11.5241 15.0359C9.53613 15.0359 7.91786 13.4172 7.91786 11.4292C7.91786 9.44125 9.53613 7.82393 11.5241 7.82393C13.5127 7.82393 15.1299 9.44125 15.1299 11.4292C15.1299 13.4172 13.5127 15.0359 11.5241 15.0359ZM11.5241 5.79992C8.42 5.79992 5.89453 8.32525 5.89453 11.4292C5.89453 14.5332 8.42 17.0586 11.5241 17.0586C14.6283 17.0586 17.1533 14.5332 17.1533 11.4292C17.1533 8.32525 14.6283 5.79992 11.5241 5.79992Z" fill="white"/>
<path d="M6.86613 2.15137C4.26573 2.15137 2.15053 4.26603 2.15053 6.86737V15.9927C2.15053 18.594 4.26573 20.7087 6.86613 20.7087H15.9917C18.5923 20.7087 20.7079 18.594 20.7079 15.9927V6.86737C20.7079 4.26603 18.5923 2.15137 15.9917 2.15137H6.86613ZM15.9917 22.8594H6.86613C3.08026 22.8594 0 19.7794 0 15.9927V6.86737C0 3.0807 3.08026 0.000701232 6.86613 0.000701232H15.9917C19.7776 0.000701232 22.8584 3.0807 22.8584 6.86737V15.9927C22.8584 19.7794 19.7776 22.8594 15.9917 22.8594Z" fill="white"/>
</svg>
