<svg width="40" height="40" viewBox="0 0 40 40" fill="none" xmlns="http://www.w3.org/2000/svg">
<defs>
<linearGradient id="paint0_linear_3421_251" x1="34.089" y1="6.1614" x2="6.51859" y2="33.7318" gradientUnits="userSpaceOnUse">
<stop stop-color="#F9D76C"/>
<stop offset="0.0011048" stop-color="#F9D76C"/>
<stop offset="0.209357" stop-color="#F9A837"/>
<stop offset="0.37646" stop-color="#F03D74"/>
<stop offset="0.523815" stop-color="#E62299"/>
<stop offset="0.739443" stop-color="#6F3EA2"/>
<stop offset="1" stop-color="#4850AB"/>
</linearGradient>
</defs><path d="M39.7987 19.9467C39.7987 30.7134 31.0711 39.4414 20.3039 39.4414C9.53726 39.4414 0.808594 30.7134 0.808594 19.9467C0.808594 9.17875 9.53726 0.452069 20.3039 0.452069C31.0711 0.452069 39.7987 9.17875 39.7987 19.9467Z" fill="url(#paint0_linear_3421_251)"/>
<path d="M26.3558 12.5726C25.6156 12.5726 25.0156 13.1726 25.0156 13.9126C25.0156 14.6526 25.6156 15.2539 26.3558 15.2539C27.0959 15.2539 27.6954 14.6526 27.6954 13.9126C27.6954 13.1726 27.0959 12.5726 26.3558 12.5726Z" fill="white"/>
<path d="M20.3991 23.5242C18.4111 23.5242 16.7929 21.9055 16.7929 19.9175C16.7929 17.9295 18.4111 16.3122 20.3991 16.3122C22.3877 16.3122 24.0049 17.9295 24.0049 19.9175C24.0049 21.9055 22.3877 23.5242 20.3991 23.5242ZM20.3991 14.2882C17.295 14.2882 14.7695 16.8135 14.7695 19.9175C14.7695 23.0215 17.295 25.5469 20.3991 25.5469C23.5033 25.5469 26.0283 23.0215 26.0283 19.9175C26.0283 16.8135 23.5033 14.2882 20.3991 14.2882Z" fill="white"/>
<path d="M15.7411 10.6396C13.1407 10.6396 11.0255 12.7543 11.0255 15.3556V24.481C11.0255 27.0823 13.1407 29.197 15.7411 29.197H24.8667C27.4673 29.197 29.5829 27.0823 29.5829 24.481V15.3556C29.5829 12.7543 27.4673 10.6396 24.8667 10.6396H15.7411ZM24.8667 31.3477H15.7411C11.9553 31.3477 8.875 28.2677 8.875 24.481V15.3556C8.875 11.569 11.9553 8.48898 15.7411 8.48898H24.8667C28.6526 8.48898 31.7334 11.569 31.7334 15.3556V24.481C31.7334 28.2677 28.6526 31.3477 24.8667 31.3477Z" fill="white"/>

</svg>
