<svg width="19" height="19" viewBox="0 0 19 19" fill="none" xmlns="http://www.w3.org/2000/svg">
<path d="M2.18861 -1.51938e-05C3.39635 -1.51938e-05 4.37501 0.98025 4.37501 2.18545C4.37501 3.39065 3.39635 4.37185 2.18861 4.37185C0.978614 4.37185 0 3.39065 0 2.18545C0 0.98025 0.978614 -1.51938e-05 2.18861 -1.51938e-05V-1.51938e-05ZM0.299947 6.02812H4.07608V18.1562H0.299947V6.02812Z" fill="white"/>
<path d="M6.44141 6.02812H10.0575V7.68639H10.1065C10.6111 6.73172 11.8409 5.72652 13.6767 5.72652C17.4939 5.72652 18.1977 8.23745 18.1977 11.5041V18.1562H14.431V12.2588C14.431 10.8521 14.4029 9.04265 12.4711 9.04265C10.5081 9.04265 10.2097 10.576 10.2097 12.1563V18.1562H6.44141V6.02812" fill="white"/>
</svg>
