<svg width="40" height="40" viewBox="0 0 40 40" fill="none" xmlns="http://www.w3.org/2000/svg">
<defs>
<linearGradient id="paint0_linear_3421_255" x1="33.4636" y1="6.47808" x2="5.89322" y2="34.0485" gradientUnits="userSpaceOnUse">
<stop stop-color="#1679B3"/>
<stop offset="1" stop-color="#2C54AD"/>
</linearGradient>
</defs><path d="M39.1738 20.2635C39.1738 31.0302 30.4451 39.7578 19.6784 39.7578C8.91119 39.7578 0.183594 31.0302 0.183594 20.2635C0.183594 9.49688 8.91119 0.767279 19.6784 0.767279C30.4451 0.767279 39.1738 9.49688 39.1738 20.2635" fill="url(#paint0_linear_3421_255)"/>
<path d="M13.3917 10.6055C14.5995 10.6055 15.5781 11.5857 15.5781 12.7909C15.5781 13.9961 14.5995 14.9773 13.3917 14.9773C12.1817 14.9773 11.2031 13.9961 11.2031 12.7909C11.2031 11.5857 12.1817 10.6055 13.3917 10.6055V10.6055ZM11.5031 16.6336H15.2792V28.7617H11.5031V16.6336Z" fill="white"/>
<path d="M17.6445 16.6336H21.2607V18.2919H21.3096C21.8143 17.3372 23.044 16.332 24.8799 16.332C28.6971 16.332 29.4008 18.8429 29.4008 22.1096V28.7617H25.6341V22.8643C25.6341 21.4576 25.606 19.6481 23.6743 19.6481C21.7112 19.6481 21.4128 21.1815 21.4128 22.7617V28.7617H17.6445V16.6336" fill="white"/>

</svg>
