<svg width="19" height="24" viewBox="0 0 19 24" fill="none" xmlns="http://www.w3.org/2000/svg">
<path fill-rule="evenodd" clip-rule="evenodd" d="M7.66054 15.4339L7.60721 15.6177C6.73854 19.0219 6.64215 19.7776 5.74895 21.3589C5.32295 22.1109 4.84321 22.8229 4.31254 23.5043L4.07708 23.6562C3.94628 23.6281 3.93588 23.51 3.92134 23.4057C3.77868 22.3709 3.70001 21.3338 3.73387 20.2885C3.77961 18.9281 3.94734 18.4604 5.70161 11.086L5.66094 10.7776C5.24107 9.64425 5.15827 8.49638 5.52494 7.33132C6.31867 4.81518 9.17121 4.62185 9.66988 6.69798C9.97654 7.98185 9.16454 9.66145 8.54054 12.1459C8.02321 14.1948 10.4352 15.6511 12.4965 14.1552C14.3992 12.7767 15.1365 9.46985 14.9965 7.12705C14.7192 2.45519 9.59654 1.44692 6.34628 2.95105C2.62081 4.67398 1.77441 9.29118 3.45574 11.4016C3.66921 11.6709 3.83441 11.8349 3.76294 12.1068C3.65521 12.5297 3.55934 12.9552 3.44267 13.3766C3.35574 13.6885 3.09375 13.8016 2.77815 13.674C2.15775 13.4229 1.64054 13.027 1.22241 12.5084C-0.206792 10.739 -0.615593 7.23905 1.27347 4.27758C3.36614 0.996385 7.25881 -0.33175 10.8125 0.06985C15.0579 0.553717 17.7405 3.45372 18.2432 6.74332C18.4725 8.24332 18.3072 11.9391 16.2032 14.5511C13.7832 17.5537 9.85921 17.7526 8.04854 15.91C7.90854 15.7682 7.79654 15.6032 7.66054 15.4339" fill="white"/>
</svg>
