<svg width="40" height="40" viewBox="0 0 40 40" fill="none" xmlns="http://www.w3.org/2000/svg">
<defs>
<linearGradient id="paint0_linear_3421_256" x1="33.7373" y1="6.48549" x2="6.16689" y2="34.0559" gradientUnits="userSpaceOnUse">
<stop stop-color="#F04148"/>
<stop offset="1" stop-color="#E51A46"/>
</linearGradient>
</defs><path d="M39.4466 20.2708C39.4466 31.0375 30.7186 39.7656 19.952 39.7656C9.18463 39.7656 0.457031 31.0375 0.457031 20.2708C0.457031 9.50416 9.18463 0.776158 19.952 0.776158C30.7186 0.776158 39.4466 9.50416 39.4466 20.2708Z" fill="url(#paint0_linear_3421_256)"/>
<path fill-rule="evenodd" clip-rule="evenodd" d="M18.4496 24.512L18.3963 24.6958C17.5276 28.1 17.4312 28.8557 16.538 30.437C16.112 31.189 15.6323 31.901 15.1016 32.5824L14.8661 32.7344C14.7353 32.7062 14.7249 32.5881 14.7104 32.4838C14.5677 31.449 14.4891 30.412 14.5229 29.3666C14.5687 28.0062 14.7364 27.5385 16.4907 20.1641L16.45 19.8557C16.0301 18.7224 15.9473 17.5745 16.314 16.4094C17.1077 13.8933 19.9603 13.7 20.4589 15.7761C20.7656 17.06 19.9536 18.7396 19.3296 21.224C18.8123 23.2729 21.2243 24.7292 23.2856 23.2333C25.1883 21.8548 25.9256 18.548 25.7856 16.2052C25.5083 11.5333 20.3856 10.525 17.1353 12.0292C13.4099 13.7521 12.5635 18.3693 14.2448 20.4797C14.4583 20.749 14.6235 20.913 14.552 21.1849C14.4443 21.6078 14.3484 22.0333 14.2317 22.4548C14.1448 22.7666 13.8828 22.8797 13.5672 22.7521C12.9468 22.501 12.4296 22.1052 12.0115 21.5865C10.5823 19.8172 10.1735 16.3172 12.0625 13.3557C14.1552 10.0745 18.0479 8.74638 21.6016 9.14798C25.8469 9.63184 28.5296 12.5318 29.0323 15.8214C29.2616 17.3214 29.0963 21.0172 26.9923 23.6292C24.5723 26.6318 20.6483 26.8308 18.8376 24.9881C18.6976 24.8464 18.5856 24.6813 18.4496 24.512" fill="white"/>

</svg>
