<svg width="21" height="24" viewBox="0 0 21 24" fill="none" xmlns="http://www.w3.org/2000/svg">
<path fill-rule="evenodd" clip-rule="evenodd" d="M8.53867 8.78133V9.7C4.46534 9.784 1.18934 13.112 1.18934 17.2027C1.18934 19.2453 2.00535 21.096 3.32935 22.4493C1.32135 21.1027 0 18.812 0 16.2147C0 12.0707 3.36134 8.71068 7.50934 8.71068C7.85334 8.70934 8.19734 8.73333 8.53867 8.78133ZM15.0173 0.521338C15.0307 0.677338 15.052 0.833338 15.0787 0.988005H12.12V17.2027C12.1133 19.0933 10.5773 20.624 8.68534 20.624C8.57466 20.624 8.46519 20.6188 8.35717 20.6085C8.46586 20.6189 8.57602 20.6242 8.6874 20.6242C10.5794 20.6242 12.1154 19.0935 12.1221 17.2029V0.988202H15.0807C15.3647 2.6042 16.3314 3.98554 17.6741 4.82287C17.6748 4.82372 17.6756 4.82457 17.6764 4.82542C18.5767 5.3863 19.6164 5.68133 20.6773 5.68V6.54377C20.678 6.54391 20.6787 6.54406 20.6794 6.54421V9.7402C18.5687 9.7402 16.6141 9.06954 15.0194 7.92954V16.2149C15.0194 20.3589 11.6581 23.7189 7.51141 23.7189C5.96341 23.7189 4.52608 23.2509 3.33141 22.4495C2.00741 21.0962 1.19141 19.2455 1.19141 17.2029C1.19141 13.1122 4.46741 9.7842 8.54074 9.7002V12.9309C8.21274 12.8269 7.86208 12.7709 7.49808 12.7709C5.60208 12.7709 4.06475 14.3069 4.06475 16.2029C4.06475 17.5429 4.83274 18.7042 5.95407 19.2695C5.95442 19.27 5.95476 19.2704 5.95511 19.2709C6.41834 19.5033 6.94125 19.636 7.49601 19.636C9.38935 19.636 10.924 18.104 10.9307 16.2147V0H15.0173V0.521338Z" fill="white"/>
</svg>
