<svg width="40" height="40" viewBox="0 0 40 40" fill="none" xmlns="http://www.w3.org/2000/svg">
<defs>
<linearGradient id="paint0_linear_3421_253" x1="5.7927" y1="6.1614" x2="33.3631" y2="33.7318" gradientUnits="userSpaceOnUse">
<stop stop-color="#1B1B3F"/>
<stop offset="1" stop-color="#040606"/>
</linearGradient>
</defs><path d="M39.0727 19.9467C39.0727 30.7134 30.3447 39.4414 19.578 39.4414C8.81136 39.4414 0.0820312 30.7134 0.0820312 19.9467C0.0820312 9.17875 8.81136 0.452069 19.578 0.452069C30.3447 0.452069 39.0727 9.17875 39.0727 19.9467Z" fill="url(#paint0_linear_3421_253)"/>
<path fill-rule="evenodd" clip-rule="evenodd" d="M14.5992 26.7228C14.1432 26.1255 13.8966 25.3962 13.8979 24.6442C13.8979 22.7482 15.4366 21.2122 17.3326 21.2122C17.6859 21.2122 18.0379 21.2655 18.3739 21.3722V17.2228C17.9806 17.1682 17.5832 17.1455 17.1859 17.1535V20.3841C16.8486 20.2775 16.4979 20.2242 16.1432 20.2242C14.2472 20.2242 12.7099 21.7602 12.7099 23.6562C12.7099 24.9962 13.4779 26.1575 14.5992 26.7228V26.7228ZM26.3192 12.2762C25.5032 11.3855 24.9686 10.2348 24.8526 8.96283V8.44149H23.7259C24.0099 10.0575 24.9766 11.4388 26.3192 12.2762ZM24.8526 16.3708C26.4472 17.5108 28.4019 18.1815 30.5125 18.1815V14.1228C30.1125 14.1228 29.7152 14.0802 29.3246 13.9975V17.1935C27.2139 17.1935 25.2592 16.5228 23.6646 15.3828V23.6681C23.6646 27.8121 20.3032 31.1722 16.1566 31.1722C14.6086 31.1722 13.1712 30.7041 11.9766 29.9028C13.3392 31.2961 15.2405 32.1602 17.3445 32.1602C21.4912 32.1602 24.8526 28.8015 24.8526 24.6562V16.3708Z" fill="#EE2659"/>
<path fill-rule="evenodd" clip-rule="evenodd" d="M23.6639 15.3826C25.2586 16.5226 27.2133 17.1932 29.3239 17.1932V13.9972C28.1453 13.7466 27.1026 13.1319 26.3186 12.2759C24.9759 11.4385 24.0093 10.0572 23.7253 8.44121H20.7666V24.6559C20.7599 26.5465 19.2239 28.0772 17.3319 28.0772C16.2173 28.0772 15.2253 27.5452 14.5986 26.7225C13.4773 26.1572 12.7093 24.9959 12.7093 23.6559C12.7093 21.7599 14.2466 20.2239 16.1426 20.2239C16.5066 20.2239 16.8573 20.2799 17.1853 20.3839V17.1532C13.1119 17.2372 9.83594 20.5652 9.83594 24.6559C9.83594 26.6985 10.6519 28.5492 11.9759 29.9025C13.1706 30.7039 14.6079 31.1719 16.1559 31.1719C20.3026 31.1719 23.6639 27.8119 23.6639 23.6679V15.3826" fill="white"/>
<path fill-rule="evenodd" clip-rule="evenodd" d="M17.1832 17.153V16.2343C16.8419 16.1863 16.4979 16.1624 16.1539 16.1637C12.0059 16.1637 8.64453 19.5237 8.64453 23.6677C8.64453 26.265 9.96588 28.5557 11.9739 29.9023C10.6499 28.549 9.83387 26.6983 9.83387 24.6557C9.83387 20.565 13.1099 17.237 17.1832 17.153ZM23.7232 8.44101C23.6965 8.28635 23.6752 8.13035 23.6619 7.97435V7.45301H19.5752V23.6677C19.5685 25.557 18.0339 27.089 16.1405 27.089C15.5845 27.089 15.0605 26.9557 14.5965 26.7223C15.2232 27.545 16.2152 28.077 17.3299 28.077C19.2219 28.077 20.7579 26.5463 20.7645 24.6557V8.44101H23.7232ZM29.3219 13.997V13.133C28.2592 13.1343 27.2179 12.8383 26.3165 12.2757C27.1139 13.1477 28.1645 13.7504 29.3219 13.997Z" fill="#47C1BE"/>

</svg>
