<svg width="22" height="18" viewBox="0 0 22 18" fill="none" xmlns="http://www.w3.org/2000/svg">
<path d="M21.1511 2.09744C20.4764 2.40277 19.7297 2.58812 19.0017 2.71079C19.3471 2.65212 19.8551 2.02545 20.0591 1.77345C20.3697 1.38678 20.6271 0.946779 20.7724 0.470779L20.7671 0.358784L20.6537 0.369445C19.8404 0.804112 18.9991 1.12012 18.1044 1.34412L17.9284 1.29877L17.7057 1.07078C17.3297 0.749445 16.9257 0.498772 16.4711 0.313439C15.8724 0.069439 15.2204 -0.0332166 14.5764 0.00811676C13.9497 0.0494501 13.3351 0.225441 12.7791 0.516107C12.2231 0.806774 11.7257 1.21211 11.3297 1.70011C10.9204 2.20544 10.6191 2.80144 10.4644 3.43344C10.3151 4.04411 10.3271 4.64811 10.4177 5.26411L10.3297 5.36677C6.82867 4.84544 3.92667 3.59345 1.56987 0.908116C1.46721 0.790782 1.412 0.790774 1.32813 0.916107C0.297466 2.46277 0.797474 4.94544 2.08547 6.16544C2.25734 6.32811 2.43334 6.49078 2.62347 6.64011C2.5548 6.65345 1.69747 6.56144 0.933333 6.16544L0.770939 6.25344C0.760939 6.42144 0.775606 6.57478 0.799072 6.75611C0.995872 8.32278 2.08134 9.77211 3.5672 10.3361C3.74334 10.4108 3.93854 10.4761 4.12867 10.5081C3.79014 10.5828 3.44121 10.6348 2.47094 10.5601C2.35001 10.5361 2.30427 10.5974 2.35 10.7134C3.0792 12.7014 4.65427 13.2934 5.83333 13.6308C5.99173 13.6574 6.14907 13.6575 6.30787 13.6948L6.2792 13.7228C5.88853 14.3188 4.5324 14.7628 3.90054 14.9841C2.75214 15.3854 1.50107 15.5654 0.287606 15.4468C0.0933391 15.4174 0.0526667 15.4201 0 15.4468L0.0552002 15.5761C0.302134 15.7388 0.552669 15.8828 0.807869 16.0228C1.57867 16.4308 2.3828 16.7561 3.22347 16.9881C7.5636 18.1868 12.4524 17.3068 15.7111 14.0681C18.2711 11.5254 19.1684 8.01878 19.1684 4.50678C19.1684 4.36945 19.3311 4.29478 19.4271 4.22145C20.0924 3.72145 20.6297 3.12278 21.1257 2.45344C21.2377 2.30411 21.2391 2.17077 21.2391 2.11611V2.09744H21.1511" fill="white"/>
</svg>
