<svg width="40" height="40" viewBox="0 0 40 40" fill="none" xmlns="http://www.w3.org/2000/svg">
<defs>
<linearGradient id="paint0_linear_3421_252" x1="33.7373" y1="6.1614" x2="6.16688" y2="33.7318" gradientUnits="userSpaceOnUse">
<stop stop-color="#2FBBE1"/>
<stop offset="1" stop-color="#3970C0"/>
</linearGradient>
</defs><path d="M39.4466 19.9467C39.4466 30.7134 30.7186 39.4414 19.952 39.4414C9.18463 39.4414 0.457031 30.7134 0.457031 19.9467C0.457031 9.17875 9.18463 0.452069 19.952 0.452069C30.7186 0.452069 39.4466 9.17875 39.4466 19.9467Z" fill="url(#paint0_linear_3421_252)"/>
<path d="M30.7214 13.2654C30.0467 13.5707 29.3001 13.7561 28.5721 13.8788C28.9174 13.8201 29.4254 13.1934 29.6294 12.9414C29.94 12.5547 30.1974 12.1147 30.3427 11.6387L30.3374 11.5268L30.2241 11.5374C29.4107 11.9721 28.5694 12.2881 27.6747 12.5121L27.4987 12.4667L27.276 12.2387C26.9 11.9174 26.4961 11.6667 26.0414 11.4814C25.4427 11.2374 24.7907 11.1348 24.1467 11.1761C23.52 11.2174 22.9054 11.3934 22.3494 11.6841C21.7934 11.9747 21.296 12.3801 20.9 12.8681C20.4907 13.3734 20.1894 13.9694 20.0347 14.6014C19.8854 15.2121 19.8974 15.8161 19.988 16.4321L19.9 16.5347C16.399 16.0134 13.497 14.7614 11.1402 12.0761C11.0375 11.9588 10.9823 11.9587 10.8984 12.0841C9.86778 13.6307 10.3678 16.1134 11.6558 17.3334C11.8277 17.4961 12.0036 17.6588 12.1938 17.8081C12.1251 17.8214 11.2678 17.7294 10.5036 17.3334L10.3413 17.4214C10.3313 17.5894 10.3459 17.7427 10.3694 17.9241C10.5662 19.4907 11.6516 20.9401 13.1375 21.5041C13.3136 21.5787 13.5088 21.6441 13.699 21.6761C13.3604 21.7508 13.0115 21.8028 12.0413 21.7281C11.9203 21.7041 11.8746 21.7654 11.9203 21.8814C12.6495 23.8694 14.2246 24.4614 15.4036 24.7987C15.562 24.8254 15.7194 24.8254 15.8782 24.8628L15.8495 24.8908C15.4588 25.4868 14.1027 25.9307 13.4708 26.1521C12.3224 26.5534 11.0714 26.7334 9.85792 26.6147C9.66365 26.5854 9.62298 26.5881 9.57031 26.6147L9.62551 26.7441C9.87245 26.9068 10.123 27.0508 10.3782 27.1908C11.149 27.5988 11.9531 27.9241 12.7938 28.1561C17.1339 29.3547 22.0227 28.4747 25.2814 25.2361C27.8414 22.6934 28.7387 19.1868 28.7387 15.6748C28.7387 15.5374 28.9014 15.4627 28.9974 15.3894C29.6627 14.8894 30.2 14.2907 30.696 13.6214C30.808 13.4721 30.8094 13.3387 30.8094 13.2841V13.2654H30.7214" fill="white"/>

</svg>
