<svg xmlns="http://www.w3.org/2000/svg" viewBox="0 0 1440 320"><path fill="#ffffff" fill-opacity="1" d="M0,160L16,165.3C32,171,64,181,96,176C128,171,160,149,192,149.3C224,149,256,171,288,170.7C320,171,352,149,384,138.7C416,128,448,128,480,154.7C512,181,544,235,576,256C608,277,640,267,672,266.7C704,267,736,277,768,256C800,235,832,181,864,181.3C896,181,928,235,960,218.7C992,203,1024,117,1056,74.7C1088,32,1120,32,1152,69.3C1184,107,1216,181,1248,218.7C1280,256,1312,256,1344,256C1376,256,1408,256,1424,256L1440,256L1440,320L1424,320C1408,320,1376,320,1344,320C1312,320,1280,320,1248,320C1216,320,1184,320,1152,320C1120,320,1088,320,1056,320C1024,320,992,320,960,320C928,320,896,320,864,320C832,320,800,320,768,320C736,320,704,320,672,320C640,320,608,320,576,320C544,320,512,320,480,320C448,320,416,320,384,320C352,320,320,320,288,320C256,320,224,320,192,320C160,320,128,320,96,320C64,320,32,320,16,320L0,320Z"></path></svg>