<svg width="1440" height="279" viewBox="0 0 1440 279" fill="none" xmlns="http://www.w3.org/2000/svg">
<path fill-rule="evenodd" clip-rule="evenodd" d="M1119.3 126.444C1119.3 120.403 1115.76 118.445 1113.13 117.534L1108.03 115.711V104.304H1109.25C1111.98 104.304 1114.21 106.7 1114.21 109.636C1114.21 111.02 1115.35 112.168 1116.74 112.168C1118.12 112.168 1119.27 111.02 1119.27 109.636C1119.27 103.899 1114.78 99.2413 1109.25 99.2413H1108.03V97.2838C1108.03 95.9001 1106.88 94.7526 1105.5 94.7526C1104.12 94.7526 1102.97 95.9001 1102.97 97.2838V99.2413H1100.78C1095.78 99.2413 1091.7 103.426 1091.7 108.624C1091.7 114.665 1095.24 116.623 1097.87 117.534L1102.97 119.356V130.764H1101.75C1099.02 130.764 1096.79 128.368 1096.79 125.431C1096.79 124.048 1095.65 122.9 1094.26 122.9C1092.88 122.9 1091.73 124.048 1091.73 125.431C1091.73 131.169 1096.22 135.826 1101.75 135.826H1102.97V137.784C1102.97 139.168 1104.12 140.315 1105.5 140.315C1106.88 140.315 1108.03 139.168 1108.03 137.784V135.826H1110.22C1115.22 135.826 1119.3 131.641 1119.3 126.444ZM1108.06 130.764H1110.22C1112.42 130.764 1114.24 128.807 1114.24 126.444C1114.24 123.508 1113.19 122.934 1111.47 122.327L1108.06 121.146V130.764ZM1099.56 112.775C1097.84 112.168 1096.79 111.594 1096.79 108.658C1096.79 106.262 1098.58 104.304 1100.78 104.304H1102.97V113.957L1099.56 112.775Z" fill="white"/>
<path fill-rule="evenodd" clip-rule="evenodd" d="M16 123.334L0 118.034V278.034H1440V214.034H1344C1312 214.034 1280 214.034 1248 176.734C1232 157.884 1216 129.959 1200 102.034C1184 74.1092 1168 46.1842 1152 27.3342C1120 -9.9658 1088 -9.96581 1056 32.7342C1043.73 48.9481 1031.47 71.5825 1019.2 94.2174L1019.2 94.221L1019.2 94.2221C999.467 130.637 979.733 167.053 960 176.734C941.945 185.931 923.891 172.749 905.836 159.567C891.891 149.385 877.945 139.203 864 139.334C844.096 139.148 824.192 159.968 804.289 180.789C792.192 193.443 780.096 206.096 768 214.034C743.627 230.029 719.253 228.04 694.88 226.051C687.253 225.428 679.627 224.806 672 224.734C664.373 224.806 656.747 225.428 649.12 226.051C624.747 228.04 600.373 230.029 576 214.034C558.603 202.617 541.206 181.447 523.809 160.277C509.206 142.506 494.603 124.736 480 112.734C448 86.0342 416 86.0342 384 96.7342C372.988 100.279 361.977 105.208 350.965 110.138C329.977 119.535 308.988 128.931 288 128.734C272 128.884 256 123.459 240 118.034C224 112.609 208 107.184 192 107.334C173.842 107.164 155.684 114.174 137.527 121.184C123.684 126.528 109.842 131.871 96 134.034C64 139.034 32 129.034 16 123.334ZM1071.75 117.298C1071.68 98.6676 1086.77 83.5138 1105.4 83.4463C1124.03 83.4126 1139.18 98.4651 1139.25 117.095C1139.32 135.725 1124.23 150.879 1105.6 150.946C1086.97 151.014 1071.82 135.928 1071.75 117.298Z" fill="white"/>
</svg>
