<svg width="23" height="23" viewBox="0 0 23 23" fill="none" xmlns="http://www.w3.org/2000/svg">
<path d="M6.3984 18.7656L6.7828 18.9948C8.19214 19.8349 9.7956 20.2787 11.4183 20.2787C16.4263 20.2787 20.4996 16.2041 20.4996 11.1979C20.4996 6.19013 16.4263 2.1156 11.4183 2.1156C6.41147 2.1156 2.33747 6.19013 2.33747 11.1979C2.33747 12.8516 2.79627 14.4792 3.6656 15.9063L3.90107 16.2927L2.99373 19.6787L6.3984 18.7656ZM0 22.6719L1.62493 16.6068C0.705202 14.9463 0.220801 13.0859 0.220801 11.1979C0.220801 5.02347 5.24427 6.95559e-06 11.4183 6.95559e-06C17.5929 6.95559e-06 22.6169 5.02347 22.6169 11.1979C22.6169 17.3724 17.5929 22.3959 11.4183 22.3959C9.56494 22.3959 7.7344 21.9265 6.09587 21.0385L0 22.6719" fill="white"/>
<path fill-rule="evenodd" clip-rule="evenodd" d="M15.5836 12.7528C15.1236 12.4768 14.5236 12.1695 13.9809 12.3908C13.5636 12.5611 13.2982 13.2138 13.0276 13.5471C12.8889 13.7174 12.7236 13.7435 12.5116 13.6591C10.9476 13.0351 9.7489 11.9908 8.8869 10.5534C8.74063 10.3294 8.76717 10.1539 8.94224 9.94658C9.20357 9.63924 9.53024 9.29031 9.60224 8.87778C9.67157 8.46378 9.47824 7.98044 9.30624 7.61218C9.0889 7.14084 8.84477 6.47005 8.37344 6.20338C7.93957 5.95858 7.36864 6.09658 6.98277 6.41018C6.31664 6.95338 5.99477 7.80338 6.0041 8.64605C6.0073 8.88565 6.03637 9.12525 6.09264 9.35538C6.22704 9.91165 6.48384 10.431 6.7729 10.9247C6.99104 11.2971 7.22811 11.6575 7.48384 12.0054C8.31971 13.1408 9.3609 14.1278 10.5649 14.8659C11.1676 15.2346 11.8156 15.5586 12.4876 15.7799C13.2409 16.0288 13.9116 16.2878 14.7236 16.133C15.5756 15.9716 16.4142 15.4455 16.7529 14.6252C16.8529 14.3815 16.9036 14.1106 16.8476 13.8544C16.7316 13.3242 16.0129 13.0091 15.5836 12.7528Z" fill="white"/>
</svg>
